<?xml version="1.0" standalone="no"?>
<!DOCTYPE svg PUBLIC "-//W3C//DTD SVG 20010904//EN"
 "http://www.w3.org/TR/2001/REC-SVG-20010904/DTD/svg10.dtd">
<svg version="1.0" xmlns="http://www.w3.org/2000/svg"
 width="809.000000pt" height="809.000000pt" viewBox="0 0 809.000000 809.000000"
 preserveAspectRatio="xMidYMid meet">
<metadata>
Created by potrace 1.14, written by Peter Selinger 2001-2017
</metadata>
<g transform="translate(0.000000,809.000000) scale(0.100000,-0.100000)"
fill="#000000" stroke="none">
<path d="M2250 7473 c0 -9 12 -77 26 -151 27 -139 28 -182 8 -409 -6 -67 -4
-73 18 -96 28 -28 136 -59 278 -81 52 -8 84 -15 70 -16 -21 -2 -19 -4 10 -9
57 -11 -114 -23 -182 -13 -32 5 -58 6 -58 3 1 -3 5 -26 9 -50 8 -39 3 -107
-13 -176 -2 -11 -5 -23 -5 -27 -1 -5 -17 -25 -36 -46 -19 -22 -31 -42 -27 -46
4 -4 0 -6 -8 -4 -10 2 -14 -3 -12 -16 3 -17 1 -18 -11 -7 -10 7 -18 8 -21 2
-4 -5 -2 -12 4 -16 6 -4 4 -15 -6 -30 -10 -16 -12 -25 -4 -30 6 -3 9 -1 8 5
-2 7 8 14 20 16 23 4 22 3 -5 -19 -15 -13 -84 -63 -152 -112 -212 -151 -316
-246 -416 -379 -16 -22 8 -2 55 44 92 90 202 176 265 208 28 14 57 19 93 18
29 -2 55 1 58 6 3 4 14 8 25 8 14 0 18 -4 12 -12 -4 -7 5 -5 21 5 28 19 28 19
21 -3 -5 -14 -3 -20 3 -16 6 3 12 1 14 -6 3 -7 7 -5 11 6 5 11 3 15 -5 10 -6
-4 -8 -3 -5 3 4 6 20 9 36 7 17 -2 36 3 45 11 8 8 17 11 20 6 3 -4 18 -6 33
-4 16 3 -16 -15 -69 -40 -245 -113 -434 -289 -532 -498 -42 -87 -62 -162 -76
-278 -13 -99 -12 -1478 0 -1486 5 -3 3 -18 -3 -34 -14 -37 -4 -59 30 -66 53
-12 114 -47 165 -95 29 -27 55 -47 59 -44 4 2 9 -3 12 -10 3 -8 1 -17 -6 -20
-7 -2 -2 -5 11 -5 12 -1 22 -5 22 -10 0 -17 112 -24 204 -12 105 13 198 40
267 77 60 33 85 59 103 109 20 54 20 26 0 -41 -11 -39 -26 -62 -55 -87 -78
-67 -253 -104 -449 -94 -132 7 -210 26 -293 70 -82 43 -125 107 -128 191 -1
22 -5 13 -14 -29 -14 -74 -1 -129 45 -187 42 -51 37 -76 -20 -107 -83 -44
-119 -73 -150 -121 -27 -41 -30 -55 -30 -121 0 -41 4 -91 9 -112 5 -21 5 -39
0 -43 -5 -3 -9 -44 -9 -92 0 -60 3 -82 10 -72 7 11 10 7 10 -19 0 -33 0 -33
24 -17 26 17 40 9 26 -14 -9 -15 -2 -40 12 -40 5 0 7 4 4 9 -4 5 3 7 14 4 12
-3 20 0 20 7 0 9 6 8 18 -3 10 -10 27 -17 38 -17 11 0 25 -5 32 -12 9 -9 12
-4 14 22 1 19 4 -17 7 -81 6 -110 15 -140 44 -147 11 -3 9 -15 -8 -35 -18 -21
-20 -40 -2 -34 6 2 35 -4 64 -14 60 -20 232 -56 313 -64 153 -16 150 -16 150
-45 0 -11 13 -25 30 -34 17 -8 28 -10 25 -5 -4 5 -2 9 3 9 9 0 27 46 24 61 -1
4 29 10 67 13 37 4 92 13 121 21 57 15 76 12 49 -8 -14 -10 -14 -14 -3 -25 7
-6 17 -12 22 -12 10 0 69 63 106 113 49 67 64 40 18 -34 l-28 -44 170 3 c218
4 251 -1 293 -43 18 -18 35 -30 38 -27 11 11 4 -80 -9 -111 -20 -50 -129 -143
-197 -169 -33 -13 -59 -26 -59 -29 0 -8 153 -17 403 -26 140 -4 197 -3 197 5
0 6 -5 14 -10 17 -6 4 19 29 55 57 37 27 92 81 123 119 50 61 60 69 92 70 19
0 62 2 95 3 33 2 98 -6 144 -16 47 -10 91 -16 98 -13 8 2 11 0 8 -5 -3 -6 2
-10 12 -10 10 -1 27 -6 38 -13 22 -13 32 -39 12 -32 -6 2 -21 -2 -32 -11 -17
-12 -18 -16 -5 -24 8 -5 17 -7 22 -4 4 2 12 -5 18 -16 11 -20 11 -20 52 4 38
22 43 23 64 9 13 -8 20 -21 18 -28 -5 -13 -96 -75 -159 -109 -29 -15 -25 -16
95 -14 151 1 212 7 204 19 -3 5 8 9 25 9 43 0 82 17 88 38 8 31 74 14 92 -22
8 -17 16 -24 20 -17 4 6 20 12 35 13 22 2 38 18 81 79 58 83 179 183 278 232
103 50 279 79 365 59 51 -12 60 -3 27 28 -14 13 -25 34 -25 47 0 23 -1 23 -31
8 -34 -18 -164 -45 -194 -41 -13 2 -22 14 -26 32 -14 61 -12 64 32 64 35 0 40
2 34 18 -4 9 -7 25 -7 35 1 22 -15 22 -21 0 -4 -15 -5 -14 -6 2 -1 16 -12 24
-43 32 -24 7 -50 14 -59 18 -13 5 -17 -3 -22 -37 -3 -24 -9 -53 -12 -63 -6
-16 -5 -17 4 -5 9 12 11 10 11 -13 0 -31 -14 -60 -51 -102 -15 -16 -30 -41
-34 -55 -11 -36 -21 -47 -108 -111 -207 -154 -531 -166 -666 -26 -20 22 -30
40 -26 48 5 8 4 10 -4 5 -16 -11 -41 54 -40 106 0 30 3 37 8 24 6 -16 8 -17
13 -4 4 9 2 20 -4 26 -6 6 -6 12 3 17 8 6 10 4 4 -5 -5 -9 -4 -11 4 -6 9 6 9
11 -1 24 -8 10 -9 13 -1 9 7 -4 16 0 22 10 5 10 13 18 18 18 4 0 7 3 6 7 -2 5
0 7 5 6 4 -1 38 18 75 42 79 51 111 57 175 36 25 -9 56 -16 69 -16 34 0 90 31
147 81 46 41 113 72 266 122 19 7 61 38 92 70 l58 59 42 -24 c82 -46 93 -53
121 -75 21 -17 38 -22 63 -19 18 3 36 1 39 -4 3 -5 -3 -7 -13 -5 -12 2 -18 -3
-18 -16 0 -22 7 -24 23 -8 8 8 13 8 17 0 4 -6 27 -11 52 -11 37 0 44 -3 42
-17 -2 -12 5 -19 20 -21 19 -3 21 -6 11 -18 -6 -7 -16 -11 -23 -7 -7 4 -7 2 1
-7 9 -10 22 -9 65 5 29 9 66 26 83 38 28 20 29 20 16 2 -8 -11 -26 -33 -40
-49 -18 -20 -22 -30 -13 -33 27 -10 13 -52 -28 -78 -22 -14 -42 -25 -44 -25
-3 0 -16 -4 -30 -10 -17 -6 -24 -14 -20 -25 5 -13 10 -12 35 6 16 11 29 17 29
14 0 -4 11 2 24 13 l25 19 68 -67 c46 -45 92 -78 143 -103 77 -38 234 -87 276
-87 23 0 24 3 24 66 0 41 -4 63 -10 59 -5 -3 -10 -2 -10 3 0 13 -70 43 -82 36
-6 -4 -8 -2 -5 3 8 13 -20 26 -35 16 -6 -3 -8 -2 -5 3 3 6 -3 16 -15 23 -12 8
-18 8 -13 1 4 -6 -22 17 -58 50 -60 57 -81 72 -74 53 1 -5 5 -7 9 -6 4 2 5 -4
1 -12 -7 -19 -31 -2 -32 23 -3 45 -6 60 -13 56 -4 -3 -8 -4 -8 -2 -1 2 -3 39
-6 84 l-6 80 66 28 c98 42 131 88 149 206 6 34 5 35 -7 8 -18 -40 -53 -75
-113 -108 -56 -32 -74 -52 -23 -25 17 9 30 12 30 8 0 -4 6 0 13 8 6 8 25 25
41 39 28 24 28 24 17 3 -11 -21 -68 -70 -77 -66 -2 1 -33 -9 -69 -22 -44 -16
-65 -20 -65 -12 0 8 -4 7 -9 -2 -6 -9 -33 -16 -71 -19 l-62 -5 4 29 c2 20 10
30 28 34 18 5 8 8 -38 14 -88 10 -224 50 -303 90 l-66 32 -16 -46 c-54 -152
-206 -242 -407 -241 -175 0 -336 61 -446 169 -32 31 -54 51 -50 44 5 -8 -1
-15 -16 -21 -50 -19 -100 75 -100 189 0 130 121 319 249 388 61 33 60 36 -19
36 -9 0 -16 4 -15 10 3 15 -37 12 -159 -8 -116 -20 -194 -18 -204 4 -4 8 -12
25 -18 36 -7 15 -7 25 0 32 8 8 5 9 -11 5 -11 -3 -21 -1 -21 5 0 5 -21 12 -47
16 -133 18 -320 84 -359 127 -9 10 -21 16 -27 12 -5 -3 -7 -1 -4 4 4 6 -3 19
-16 29 -21 19 -21 19 -7 -1 14 -18 13 -19 -1 -7 -26 19 -25 131 0 164 24 30
108 71 191 95 53 14 65 15 102 2 23 -7 56 -28 73 -45 34 -36 57 -49 128 -74
45 -15 142 -92 131 -103 -2 -2 17 -14 43 -27 39 -19 66 -24 147 -26 92 -3 143
7 132 24 -2 4 43 6 100 4 75 -3 104 -1 104 7 0 7 -5 9 -10 6 -6 -4 -11 9 -11
32 l-2 38 -7 -35 c-6 -31 -8 -32 -9 -8 -1 37 3 35 -150 64 -118 22 -179 43
-212 72 l-31 28 66 28 c36 16 69 33 72 38 4 5 -9 2 -27 -7 -49 -26 -151 -32
-180 -11 -28 19 -31 38 -9 47 9 4 -22 18 -75 34 -49 15 -126 44 -171 65 -128
62 -224 172 -244 280 -7 34 -7 34 -17 11 -6 -16 -12 -20 -17 -13 -13 21 -26 2
-26 -36 -1 -20 -7 -64 -14 -97 -14 -65 -3 -138 29 -202 18 -36 26 -35 88 5 55
36 57 19 4 -33 -52 -50 -106 -70 -232 -86 -120 -16 -122 -17 -129 -41 -5 -19
-8 -21 -16 -8 -8 13 -10 12 -10 -2 0 -12 -8 -18 -25 -18 -14 0 -25 5 -25 12 0
9 -3 9 -12 0 -14 -14 -73 -16 -114 -3 -16 5 -46 12 -66 16 -21 3 -43 11 -50
18 -7 7 -21 16 -32 20 -15 6 -18 14 -13 45 5 32 4 34 -5 14 -11 -21 -13 -20
-37 31 -14 30 -41 71 -60 92 -41 47 -71 110 -71 150 0 17 9 48 19 70 53 118
205 187 411 188 109 0 186 -17 303 -68 44 -19 82 -35 84 -35 2 0 3 13 3 28 0
16 11 51 25 78 29 57 28 54 14 54 -30 0 -180 82 -226 124 -104 94 -122 211
-46 298 14 16 11 16 -49 2 -150 -35 -377 -115 -455 -160 -47 -27 -50 -58 -6
-69 26 -6 62 -35 45 -35 -5 0 -12 -9 -15 -19 -3 -15 1 -21 17 -24 11 -2 -33
-5 -98 -6 -120 -1 -242 -24 -230 -43 3 -5 -5 -6 -20 -2 -17 4 -26 2 -26 -6 0
-6 -5 -8 -10 -5 -11 7 -166 -43 -283 -90 -69 -28 -104 -28 -93 1 5 13 4 14 -7
6 -18 -15 -30 -3 -16 15 9 9 8 13 0 13 -6 0 -11 9 -11 19 0 10 -7 21 -15 25
-8 3 -15 12 -15 21 0 8 -4 15 -9 15 -5 0 -12 14 -16 31 -4 17 -13 33 -21 36
-8 3 -14 9 -14 15 0 5 6 6 13 2 7 -5 6 -1 -3 10 -8 10 -16 30 -18 44 -2 15 -6
29 -10 32 -12 8 -15 53 -3 46 6 -4 9 13 6 50 -2 48 0 60 20 80 28 28 37 51 22
58 -9 5 -9 7 1 12 6 3 12 12 12 20 0 8 5 14 10 14 6 0 9 3 9 8 -1 4 0 10 1 15
3 10 7 25 9 35 0 4 19 27 41 52 21 24 37 47 34 52 -3 4 2 8 10 8 9 0 16 5 16
11 0 13 61 65 72 61 4 -1 8 2 8 8 0 6 3 9 8 9 19 -3 33 2 27 10 -6 11 31 25
44 16 5 -3 12 -1 16 5 4 6 11 8 16 5 5 -4 13 2 17 12 7 18 22 26 55 27 9 0 17
4 17 8 0 4 21 8 48 9 34 0 42 3 27 9 -18 7 -19 8 -2 15 10 4 24 1 34 -6 9 -8
14 -9 10 -3 -4 8 5 13 28 16 19 2 36 -1 38 -6 2 -6 18 -11 35 -12 17 -1 29 3
26 7 -3 5 0 10 5 10 14 2 30 6 34 8 1 2 13 4 26 7 13 2 47 11 75 19 28 8 116
26 196 39 79 14 146 30 148 35 2 6 11 11 20 11 14 0 15 -2 3 -9 -18 -11 103
-2 137 10 18 7 22 16 22 52 0 40 25 85 48 88 4 0 15 2 25 4 9 2 17 -2 17 -7 0
-6 7 -16 16 -22 8 -7 18 -30 21 -53 3 -27 11 -43 22 -45 32 -8 551 5 545 13
-3 5 -9 7 -14 4 -4 -3 -11 2 -14 11 -8 22 -8 26 4 19 6 -3 10 -2 10 4 0 5 -6
11 -12 13 -9 3 -10 10 -3 24 10 19 11 19 34 -5 14 -14 17 -22 8 -18 -11 4 -15
0 -14 -12 1 -13 9 -17 34 -16 31 1 61 15 32 15 -12 0 -12 2 0 9 10 7 19 4 28
-7 12 -16 13 -16 7 1 -5 13 -1 17 15 17 12 0 24 7 27 15 4 8 9 13 14 10 4 -2
18 7 30 20 13 14 29 25 37 25 7 0 13 7 13 15 0 8 9 20 20 27 11 7 20 21 20 32
0 11 3 17 6 13 7 -7 34 17 34 31 0 5 7 15 15 22 10 8 13 20 9 33 -6 20 -6 20
11 3 14 -14 20 -15 26 -4 5 7 9 20 9 28 0 12 -2 12 -9 2 -7 -11 -9 -11 -14 2
-4 9 -1 15 6 13 7 -1 11 4 9 11 -1 6 2 12 7 12 5 0 12 -6 14 -12 3 -8 6 -6 6
5 1 10 -6 17 -16 17 -14 1 -12 4 7 14 14 8 28 12 32 10 3 -2 12 9 19 25 7 16
17 27 21 25 4 -3 13 4 20 16 7 11 18 20 25 20 6 0 18 9 26 20 8 11 17 17 20
14 3 -4 12 5 18 20 7 14 19 26 28 26 14 0 14 2 2 9 -11 7 -4 10 25 13 21 2
-77 1 -219 -1 -257 -3 -354 5 -398 32 -65 41 25 67 466 137 110 18 209 33 220
35 11 1 20 3 20 4 0 2 7 4 16 6 36 7 59 17 59 26 0 5 7 9 15 9 8 0 15 5 15 11
0 6 -7 8 -16 5 -14 -5 -15 -4 -4 9 10 12 10 15 -1 16 -8 1 -3 5 11 9 14 5 -27
6 -95 3 -194 -10 -1007 -9 -1040 1 l-30 9 30 7 c22 6 11 8 -45 11 -41 1 159 6
445 10 501 7 713 16 952 40 94 10 109 14 98 25 -7 8 -18 14 -24 14 -6 0 -26
14 -45 30 -84 74 -84 203 1 281 53 50 88 61 171 56 43 -2 89 -8 103 -12 26 -7
27 -5 48 79 11 47 35 123 51 168 16 45 28 83 25 86 -10 11 -35 -9 -35 -29 0
-43 -33 -79 -110 -118 -76 -40 -229 -95 -238 -87 -2 3 7 8 22 12 19 4 24 10
17 21 -5 10 -1 23 15 41 13 14 24 33 24 43 0 11 5 19 11 19 5 0 7 5 4 11 -4 6
1 16 11 24 11 7 16 16 13 20 -4 3 -67 1 -140 -5 -409 -31 -1546 -42 -2049 -20
-421 18 -750 54 -894 96 -61 17 -56 17 -56 -3z m1554 -209 c8 -20 -1 -34 -20
-34 -8 0 -14 10 -14 25 0 28 24 34 34 9z m279 -151 c-7 -2 -19 -2 -25 0 -7 3
-2 5 12 5 14 0 19 -2 13 -5z m340 0 c-7 -2 -21 -2 -30 0 -10 3 -4 5 12 5 17 0
24 -2 18 -5z m-3 -27 c18 -23 8 -61 -18 -64 -28 -4 -39 20 -24 54 13 27 24 30
42 10z m-474 -667 c10 -17 -13 -36 -27 -22 -12 12 -4 33 11 33 5 0 12 -5 16
-11z m-316 -63 c0 -32 -18 -43 -37 -23 -20 20 -10 47 17 47 15 0 20 -7 20 -24z
m1131 -59 c-10 -9 -11 -8 -5 6 3 10 9 15 12 12 3 -3 0 -11 -7 -18z m-1565 -49
c-32 -18 -156 -47 -162 -37 -3 5 3 9 14 9 10 0 22 3 26 7 4 4 19 9 34 11 15 2
31 7 37 13 5 5 23 9 40 9 27 -1 28 -2 11 -12z m914 -33 c10 -12 10 -18 0 -30
-25 -30 -61 -7 -46 30 3 8 12 15 19 15 8 0 20 -7 27 -15z m-1052 -162 c-2 -10
-10 -18 -18 -18 -8 0 -16 8 -18 18 -2 12 3 17 18 17 15 0 20 -5 18 -17z m-607
-78 c-1 -15 -24 -12 -29 3 -3 9 2 13 12 10 10 -1 17 -7 17 -13z m238 -85 c48
-49 48 -115 -1 -143 -46 -26 -85 -22 -119 14 -83 89 34 215 120 129z m1105 -6
c17 -16 20 -44 10 -81 -5 -17 -12 -21 -36 -17 -55 6 -75 58 -36 94 26 24 41
25 62 4z m-819 -25 c10 -15 -1 -23 -20 -15 -9 3 -13 10 -10 16 8 13 22 13 30
-1z m-51 -120 c-8 -14 -34 -11 -34 4 0 8 3 17 7 20 9 9 34 -13 27 -24z m1234
17 c3 -3 -25 -6 -61 -6 -37 0 -67 4 -67 10 0 10 117 6 128 -4z m-1391 -32 c8
-21 -13 -42 -28 -27 -13 13 -5 43 11 43 6 0 13 -7 17 -16z m53 -125 c0 -4 -7
-6 -15 -3 -8 4 -15 10 -15 15 0 4 7 6 15 3 8 -4 15 -10 15 -15z m-724 -200 c4
-8 9 -7 15 2 6 11 11 11 21 1 9 -9 8 -12 -6 -12 -9 0 -14 -4 -11 -10 3 -6 -1
-7 -9 -4 -9 3 -16 1 -16 -5 0 -14 -37 -14 -45 -1 -8 13 13 40 31 40 7 0 16 -5
20 -11z m51 -146 c-4 -3 0 -14 9 -24 16 -18 10 -27 -26 -34 -11 -2 -18 0 -15
5 3 5 0 12 -5 15 -12 8 16 45 33 45 6 0 7 -3 4 -7z m-247 -13 c0 -5 -7 -10
-15 -10 -8 0 -15 5 -15 10 0 6 7 10 15 10 8 0 15 -4 15 -10z m1236 -361 c9
-16 -12 -33 -31 -25 -14 5 -15 9 -5 21 15 18 26 19 36 4z m-17 -187 c12 -18
32 -37 44 -42 18 -7 18 -9 4 -9 -10 -1 -70 -22 -135 -48 -64 -25 -130 -47
-147 -48 -44 -3 -57 -8 -84 -32 -13 -12 -29 -19 -35 -17 -6 2 -27 -23 -46 -56
-32 -54 -71 -83 -88 -65 -3 3 2 5 11 5 10 0 17 6 17 13 0 6 11 37 25 67 13 30
17 45 9 33 -29 -40 -109 -20 -159 39 -48 57 -19 130 70 178 52 27 105 37 105
20 0 -6 9 -10 21 -10 11 0 18 -4 14 -10 -3 -5 9 -13 27 -18 18 -5 32 -14 31
-19 -3 -16 30 -12 52 7 48 41 92 64 139 75 47 11 53 10 77 -9 14 -12 36 -36
48 -54z m-832 -228 c3 -8 1 -20 -6 -27 -14 -14 -47 15 -37 32 10 16 36 13 43
-5z m241 -109 c-86 -14 -137 -29 -188 -55 -37 -19 -100 -76 -100 -92 0 -5 13
7 30 25 54 61 174 103 310 107 147 5 250 -3 145 -11 -45 -4 -77 -18 -68 -33 3
-5 1 -6 -5 -2 -5 3 -13 0 -16 -6 -3 -7 -3 -2 0 12 5 19 4 22 -6 14 -14 -14 -3
-57 12 -48 7 5 8 2 3 -6 -11 -19 54 -137 92 -166 18 -14 59 -37 91 -50 68 -31
104 -46 116 -53 5 -2 6 0 3 6 -3 5 8 9 26 9 18 0 49 3 70 7 21 5 37 4 37 -1 0
-11 -113 -62 -136 -62 -8 0 -17 -7 -21 -16 -4 -12 -8 -12 -13 -3 -5 7 -18 9
-34 5 -23 -6 -25 -9 -16 -26 8 -16 7 -24 -5 -36 -13 -14 -15 -12 -15 20 l0 36
-67 0 c-137 1 -313 34 -417 81 -100 44 -163 135 -136 199 16 38 78 95 127 116
46 19 163 42 218 42 28 0 17 -4 -37 -13z m937 -345 c3 -5 1 -10 -4 -10 -6 0
-11 5 -11 10 0 6 2 10 4 10 3 0 8 -4 11 -10z m-1070 -122 l40 -16 -60 5 c-95
9 -111 21 -96 71 1 1 18 -8 39 -21 20 -13 55 -31 77 -39z m552 15 c-3 -10 -5
-4 -5 12 0 17 2 24 5 18 2 -7 2 -21 0 -30z m-50 5 c-3 -8 -6 -5 -6 6 -1 11 2
17 5 13 3 -3 4 -12 1 -19z m368 -176 c79 -45 252 -122 281 -123 18 0 18 -1 -1
-9 -13 -5 -2 -7 30 -3 28 3 66 0 85 -5 26 -8 29 -10 12 -11 -14 -1 -21 -5 -16
-12 4 -8 -1 -9 -17 -5 -13 3 -18 3 -11 0 18 -8 15 -37 -3 -30 -9 3 -15 0 -15
-10 0 -8 4 -13 9 -9 16 9 20 -9 5 -23 -10 -9 -14 -9 -14 -1 0 8 -4 8 -15 -1
-8 -7 -14 -18 -13 -24 4 -21 -33 -65 -50 -59 -13 4 -14 3 -3 -5 15 -11 6 -36
-10 -27 -5 4 -21 -3 -35 -14 -15 -12 -35 -21 -45 -21 -10 0 -21 -4 -24 -10 -3
-5 -15 -10 -26 -10 -10 0 -19 -5 -19 -10 0 -7 -27 -10 -72 -8 -67 3 -73 5 -79
28 -7 24 -7 24 -8 3 -2 -38 -31 -28 -32 10 0 27 -2 29 -9 12 -9 -20 -9 -20 -9
0 -1 17 -20 28 -106 59 -168 61 -267 137 -294 225 -14 47 -14 88 -1 96 6 3 10
0 10 -8 0 -33 64 -139 103 -171 41 -33 119 -82 85 -54 -10 8 -15 18 -12 21 9
8 -32 27 -41 19 -5 -4 -5 -2 -2 4 12 21 54 22 78 2 13 -11 17 -16 9 -12 -9 4
-12 3 -7 -2 10 -10 58 -13 51 -3 -2 4 31 -7 74 -23 81 -32 242 -52 242 -31 0
6 -8 10 -17 9 -12 -1 -20 9 -24 29 l-7 30 -1 -29 c-1 -23 -4 -26 -15 -17 -11
9 -15 9 -19 -1 -3 -7 -6 5 -7 27 -2 35 -3 37 -10 15 l-7 -25 -8 28 c-6 21 -10
25 -16 15 -7 -10 -9 -10 -9 3 0 10 -16 20 -42 28 -75 22 -191 89 -255 147 -35
30 -63 60 -63 65 0 5 10 9 23 9 53 2 85 5 82 10 -9 15 42 52 77 55 3 0 9 3 13
7 4 4 39 -19 78 -51 40 -32 104 -76 142 -99z m1422 126 c-3 -8 -6 -5 -6 6 -1
11 2 17 5 13 3 -3 4 -12 1 -19z m-1984 -280 c-1 -29 2 -38 12 -34 10 3 12 0 8
-11 -4 -9 -2 -14 3 -10 5 3 10 -3 10 -13 0 -10 -4 -16 -8 -14 -11 7 -10 -4 3
-27 5 -11 15 -16 21 -13 6 4 8 3 5 -3 -10 -16 60 -73 128 -103 106 -48 196
-65 345 -64 147 0 220 5 214 15 -5 9 26 20 37 13 5 -3 9 -1 9 5 0 5 8 12 18
15 9 3 34 21 55 40 20 19 37 32 37 27 0 -15 -58 -98 -83 -118 -15 -11 -23 -23
-20 -27 6 -5 -12 -10 -30 -7 -4 0 -6 -2 -5 -6 4 -14 -26 -53 -40 -53 -7 0 -11
-3 -9 -7 3 -5 -1 -14 -9 -21 -8 -7 -14 -9 -14 -5 0 4 -4 2 -9 -5 -19 -30 -231
-57 -231 -29 0 8 -4 7 -10 -3 -7 -11 -10 -5 -11 25 -1 39 -2 39 -9 10 l-8 -30
-2 35 -3 35 -7 -40 -7 -40 -2 38 c-1 41 -17 50 -24 15 -3 -18 -5 -17 -6 7 -1
21 -4 26 -10 17 -7 -11 -13 -9 -30 9 -14 16 -21 18 -21 8 0 -9 -3 -10 -8 -3
-4 6 -46 29 -94 52 -48 22 -107 54 -130 70 -24 16 -55 36 -70 46 -15 9 -35 30
-44 47 -8 17 -12 29 -7 26 6 -4 2 17 -8 46 -12 37 -15 57 -7 70 5 10 12 16 15
13 8 -8 44 24 38 34 -2 4 1 7 8 7 8 0 11 -15 10 -39z m1074 -124 c18 -14 37
-23 42 -19 6 3 14 -2 20 -12 6 -11 23 -18 48 -19 21 -1 38 -3 38 -4 0 -2 36
-9 63 -12 12 -1 22 -5 22 -9 0 -4 9 -5 19 -2 11 3 34 -2 52 -11 17 -9 35 -13
40 -10 5 3 16 -2 25 -10 12 -12 12 -16 2 -17 -7 -1 14 -7 47 -14 33 -7 52 -13
43 -14 -10 0 -18 -5 -18 -11 0 -5 -7 -10 -15 -10 -8 0 -15 -6 -15 -12 0 -10
-3 -9 -9 1 -10 15 -15 8 -26 -34 -4 -16 -10 -24 -12 -17 -7 17 -30 15 -37 -4
-9 -25 -8 -27 19 -22 13 3 22 2 20 -2 -3 -4 20 -11 50 -15 30 -3 55 -11 55
-16 0 -5 -3 -9 -7 -10 -5 0 -24 -2 -43 -5 -19 -3 -46 -6 -60 -7 -14 -1 -28 -6
-32 -12 -5 -6 -8 -5 -8 3 0 6 -5 12 -11 12 -7 0 -17 7 -24 17 -7 9 -32 24 -56
34 l-44 18 37 -1 c21 -1 41 2 45 7 4 4 0 5 -9 2 -12 -4 -18 -1 -18 9 0 8 -6
14 -12 12 -23 -4 -62 14 -113 51 -78 56 -96 74 -90 89 2 7 1 10 -4 7 -10 -6
-24 11 -27 33 -1 6 3 9 8 6 7 -5 8 -2 4 5 -5 7 -15 10 -24 6 -9 -3 -13 -3 -9
1 4 4 0 16 -10 26 -23 26 -5 22 34 -8z m-1048 -261 c134 -90 205 -112 388
-120 147 -6 146 -6 131 -77 -14 -63 -7 -70 62 -63 75 8 116 25 165 68 l38 34
-18 -34 c-9 -19 -37 -56 -62 -82 -24 -26 -40 -50 -35 -53 13 -8 96 82 121 133
14 27 28 41 41 41 32 0 213 -30 224 -38 6 -3 22 -5 36 -4 18 2 21 0 12 -6 -10
-7 -5 -9 15 -9 15 1 44 -2 63 -6 l35 -7 -35 14 c-33 13 -29 14 80 16 151 3
154 3 159 -11 2 -8 6 -8 11 1 5 8 10 -3 15 -28 7 -43 0 -67 -16 -57 -5 4 -9 0
-9 -7 0 -9 -3 -9 -10 2 -8 13 -10 12 -10 -4 0 -14 -6 -17 -25 -14 -28 6 -32
-4 -9 -23 43 -35 58 -125 28 -167 -8 -12 -10 -22 -5 -22 6 0 11 5 11 10 0 7 6
8 17 2 9 -5 28 -7 42 -3 24 6 47 7 54 1 1 -1 27 -3 57 -5 134 -9 158 -15 171
-46 16 -41 3 -53 -87 -74 -56 -13 -93 -16 -147 -11 -40 4 -89 8 -109 9 -37 1
-38 2 -40 41 -1 36 -2 37 -5 9 -7 -55 -53 -71 -53 -17 0 13 -4 24 -9 24 -6 0
-6 -12 -1 -30 6 -22 5 -30 -4 -30 -7 0 -12 10 -12 21 1 12 -5 24 -11 26 -8 3
-13 -3 -13 -14 0 -13 -2 -15 -9 -5 -6 10 -21 11 -72 3 -89 -15 -205 -13 -327
4 -220 31 -335 80 -373 160 -10 19 -9 19 5 1 18 -22 36 -13 29 15 -3 12 0 25
7 29 7 4 -32 8 -86 8 -54 1 -108 3 -119 6 -11 2 -29 5 -40 5 -41 2 -49 16 -31
51 20 41 20 51 1 44 -8 -3 -19 -25 -24 -47 l-10 -42 2 50 c2 44 0 50 -18 50
-11 0 -22 3 -25 6 -3 3 -33 16 -68 28 -117 44 -233 127 -268 193 -15 29 -18
76 -6 94 11 17 40 24 45 11 3 -8 7 -6 12 5 8 19 7 19 124 -59z m-1138 -13 c5
0 8 -3 7 -7 -6 -32 68 -118 134 -156 33 -18 49 -37 33 -37 -11 0 -100 50 -122
67 -43 36 -73 94 -72 137 1 23 4 31 6 19 2 -13 9 -23 14 -23z m2162 -137 c-7
-2 -19 -2 -25 0 -7 3 -2 5 12 5 14 0 19 -2 13 -5z m-1482 -98 c55 -52 64 -79
18 -54 -35 18 -109 91 -103 100 11 18 28 8 85 -46z m1926 -17 c-3 -8 -6 -5 -6
6 -1 11 2 17 5 13 3 -3 4 -12 1 -19z m193 -27 c-6 -12 -15 -19 -21 -16 -13 8
-11 29 3 43 18 18 32 -2 18 -27z m-1493 -43 c-3 -7 -5 -2 -5 12 0 14 2 19 5
13 2 -7 2 -19 0 -25z m1513 12 c0 -5 -5 -10 -11 -10 -5 0 -7 5 -4 10 3 6 8 10
11 10 2 0 4 -4 4 -10z m-2420 -151 c0 -5 3 -8 8 -7 10 2 64 -24 82 -39 45 -38
80 -64 80 -59 0 3 12 -6 27 -20 14 -13 37 -27 50 -30 22 -6 26 -25 11 -50 -4
-6 -2 -11 5 -12 7 -1 36 -6 66 -11 37 -7 87 -7 152 0 150 15 274 62 373 140
53 42 66 47 66 24 0 -28 -70 -92 -138 -128 -93 -48 -193 -70 -323 -69 -232 1
-453 73 -509 164 -28 46 -25 59 6 21 13 -18 39 -42 57 -55 24 -17 20 -8 -20
35 -43 45 -53 62 -53 91 0 35 0 35 30 25 17 -6 30 -15 30 -20z m3567 5 c-3 -3
-12 -4 -19 -1 -8 3 -5 6 6 6 11 1 17 -2 13 -5z m-2357 -84 c0 -6 -16 -18 -35
-27 -28 -13 -34 -21 -29 -37 6 -20 6 -20 -8 -2 -22 28 -32 4 -18 -40 16 -49 6
-53 -16 -8 -25 50 -47 58 -33 12 13 -48 12 -65 -3 -50 -7 7 -13 18 -14 25 0 7
-2 20 -2 30 -3 28 -22 19 -23 -10 0 -27 -1 -27 -9 -5 -7 16 -18 22 -37 22 -99
0 -96 4 49 47 62 19 119 38 128 43 21 13 50 12 50 0z m-111 -135 l0 -20 -9 20
c-5 11 -9 27 -9 35 -1 13 0 13 9 0 5 -8 9 -24 9 -35z m2913 -25 c4 -3 -1 -6
-11 -6 -11 0 -19 5 -18 10 1 6 -3 10 -10 11 -13 0 -42 25 -29 25 5 0 2 8 -5
18 -7 9 5 1 26 -18 22 -19 43 -37 47 -40z m-2150 -42 c14 -23 14 -31 4 -102
-5 -37 -36 -99 -71 -141 -16 -20 -16 -20 -5 2 9 19 8 22 -5 17 -8 -4 -23 0
-32 7 -14 12 -16 12 -8 -1 6 -12 5 -12 -5 -3 -17 16 -54 1 -88 -35 -15 -16
-54 -49 -87 -72 -33 -24 -63 -48 -67 -54 -4 -6 -8 -7 -8 -3 0 5 -6 5 -12 0 -7
-4 -15 -8 -18 -8 -3 -1 -31 -7 -63 -14 -63 -14 -88 -8 -41 9 69 25 68 28 -6
25 -94 -3 -51 13 54 20 150 10 321 152 372 309 9 28 19 54 21 59 9 16 51 6 65
-15z m-1177 -98 c3 -6 -1 -7 -9 -4 -18 7 -21 14 -7 14 6 0 13 -4 16 -10z"/>
<path d="M2945 4726 c-27 -12 -57 -31 -65 -41 -9 -11 0 -8 24 9 35 23 94 46
122 46 6 0 29 -11 50 -25 l39 -26 -33 31 c-39 36 -69 38 -137 6z"/>
<path d="M3232 3330 c0 -14 2 -19 5 -12 2 6 2 18 0 25 -3 6 -5 1 -5 -13z"/>
<path d="M4061 3228 c-1 -21 7 -22 29 -7 13 9 13 10 -2 6 -9 -3 -19 -1 -22 6
-2 7 -5 4 -5 -5z"/>
<path d="M3960 2960 c8 -5 20 -10 25 -10 6 0 3 5 -5 10 -8 5 -19 10 -25 10 -5
0 -3 -5 5 -10z"/>
<path d="M4055 2860 c10 -11 20 -20 23 -20 3 0 -3 9 -13 20 -10 11 -20 20 -23
20 -3 0 3 -9 13 -20z"/>
<path d="M4096 2795 c8 -37 14 -45 14 -19 0 10 -5 26 -10 34 -8 11 -9 7 -4
-15z"/>
<path d="M4040 2607 c0 -9 4 -18 9 -21 5 -4 8 1 7 9 -3 21 -16 31 -16 12z"/>
<path d="M2220 2525 c0 -8 2 -15 4 -15 2 0 6 7 10 15 3 8 1 15 -4 15 -6 0 -10
-7 -10 -15z"/>
<path d="M1596 5505 c-3 -9 -6 -22 -5 -28 0 -7 5 -1 10 12 5 13 8 26 5 28 -2
2 -6 -3 -10 -12z"/>
<path d="M1570 5408 c-27 -125 -30 -237 -30 -927 0 -673 2 -725 18 -738 9 -8
12 -12 5 -9 -13 7 -12 -11 4 -38 7 -12 13 -15 17 -7 4 6 3 11 -1 11 -10 0 -9
133 1 149 4 6 2 9 -6 6 -10 -4 -13 15 -12 85 0 49 -4 90 -9 90 -5 0 -6 209 -3
513 7 577 13 766 27 851 13 74 5 85 -11 14z"/>
<path d="M3732 5214 c-90 -26 -156 -56 -168 -76 -6 -10 -5 -10 7 -1 26 21 117
52 181 62 35 6 119 11 187 12 68 1 142 4 165 7 l41 6 -45 7 c-25 4 -99 8 -165
8 -99 0 -135 -4 -203 -25z"/>
<path d="M3901 5023 c-1 -6 -19 -28 -41 -49 -41 -39 -51 -74 -27 -93 105 -87
118 -91 237 -79 52 5 111 12 130 15 33 5 31 6 -30 19 -83 17 -203 76 -228 112
-11 15 -24 41 -30 57 -6 17 -11 25 -11 18z"/>
<path d="M5609 4943 c-13 -16 -12 -17 4 -4 16 13 21 21 13 21 -2 0 -10 -8 -17
-17z"/>
<path d="M5573 4933 c4 -3 -3 -18 -15 -32 l-23 -26 27 24 c24 21 29 41 11 41
-4 0 -3 -3 0 -7z"/>
<path d="M5469 4803 c-13 -16 -12 -17 4 -4 16 13 21 21 13 21 -2 0 -10 -8 -17
-17z"/>
<path d="M4775 4730 c-17 -4 8 -5 55 -2 47 2 87 6 89 8 8 7 -114 2 -144 -6z"/>
<path d="M5446 4505 c-3 -9 -6 -22 -5 -28 0 -7 5 -1 10 12 5 13 8 26 5 28 -2
2 -6 -3 -10 -12z"/>
<path d="M5564 4192 c4 -7 -3 -22 -19 -38 -24 -24 -24 -25 -4 -19 15 5 19 4
14 -5 -5 -9 -1 -10 15 -5 16 5 20 4 15 -5 -5 -9 -1 -10 15 -5 14 4 20 3 16 -3
-7 -12 27 -22 42 -13 6 4 8 11 4 16 -11 16 -107 91 -98 77z"/>
<path d="M5660 4086 c0 -2 7 -7 16 -10 8 -3 12 -2 9 4 -6 10 -25 14 -25 6z"/>
<path d="M3361 4024 c0 -11 3 -14 6 -6 3 7 2 16 -1 19 -3 4 -6 -2 -5 -13z"/>
<path d="M5917 3891 c12 -10 19 -22 15 -25 -3 -4 1 -4 11 -1 15 6 15 8 0 23
-9 9 -23 17 -32 18 -12 2 -10 -2 6 -15z"/>
<path d="M5050 3875 c-14 -8 -20 -14 -14 -15 5 0 19 7 30 15 24 18 16 19 -16
0z"/>
<path d="M4997 3775 c-4 -16 -8 -56 -9 -88 -1 -57 -2 -58 -37 -73 -20 -8 -58
-22 -86 -31 -63 -20 -78 -33 -39 -33 41 0 128 -26 188 -57 110 -56 183 -131
254 -258 10 -18 11 -17 12 11 0 16 -5 35 -12 42 -17 17 0 16 95 -10 93 -24
245 -29 313 -10 22 7 61 25 85 42 41 27 44 28 47 10 2 -13 32 -35 92 -66 50
-25 103 -62 121 -81 30 -34 33 -35 84 -30 74 8 141 38 141 65 0 11 -4 18 -8
16 -4 -3 -8 15 -8 40 0 26 5 46 11 46 5 0 7 -5 3 -12 -5 -7 -3 -8 6 -3 10 6
10 11 -3 20 -17 12 -24 31 -9 21 4 -2 14 0 22 5 11 8 7 9 -15 5 -67 -13 -231
-18 -255 -8 l-25 11 24 0 c18 1 22 5 16 19 -3 9 -9 29 -12 44 -3 15 -9 25 -14
22 -5 -3 -9 0 -9 7 0 6 8 9 19 6 10 -2 25 -1 32 4 9 6 -12 9 -56 8 -39 -1 -80
1 -93 5 -19 6 -22 4 -22 -17 0 -29 -51 -77 -80 -77 -10 0 -26 -7 -34 -16 -9
-8 -16 -11 -16 -5 0 7 -8 7 -24 1 -13 -5 -27 -6 -31 -2 -3 3 -10 0 -15 -8 -6
-8 -10 -10 -10 -4 0 6 -10 10 -22 9 -53 -4 -255 59 -333 104 -65 38 -167 127
-205 180 -24 33 -35 41 -51 36 -17 -6 -19 -3 -13 21 6 21 4 25 -7 19 -11 -7
-12 -6 -3 6 8 9 9 29 5 54 l-7 40 -7 -30z"/>
<path d="M5125 3370 c27 -27 51 -50 54 -50 3 0 -17 23 -44 50 -27 28 -51 50
-54 50 -3 0 17 -22 44 -50z"/>
<path d="M5810 3275 c0 -3 26 -17 58 -31 31 -14 80 -44 107 -67 l50 -42 -30
36 c-16 20 -33 34 -37 32 -5 -2 -8 0 -8 6 0 5 -29 23 -65 40 -67 32 -75 35
-75 26z"/>
<path d="M5950 3129 c0 -5 5 -7 10 -4 6 3 10 8 10 11 0 2 -4 4 -10 4 -5 0 -10
-5 -10 -11z"/>
<path d="M5974 3109 c-2 -4 0 -10 5 -13 5 -3 8 -26 6 -51 -1 -24 2 -42 7 -39
4 3 6 10 3 15 -4 5 -2 9 2 9 5 0 9 20 9 43 -1 29 -5 44 -14 44 -7 0 -15 -4
-18 -8z"/>
<path d="M5449 3106 c-2 -3 -37 -6 -77 -7 -40 -1 -72 -6 -72 -12 0 -11 196 -2
265 12 35 8 31 9 -36 10 -42 0 -78 -1 -80 -3z"/>
<path d="M5701 2564 c0 -11 3 -14 6 -6 3 7 2 16 -1 19 -3 4 -6 -2 -5 -13z"/>
<path d="M5360 2528 c0 -16 5 -28 10 -28 13 0 13 20 0 40 -8 12 -10 9 -10 -12z"/>
<path d="M5302 2445 c0 -16 2 -22 5 -12 2 9 2 23 0 30 -3 6 -5 -1 -5 -18z"/>
<path d="M5342 2450 c0 -14 2 -19 5 -12 2 6 2 18 0 25 -3 6 -5 1 -5 -13z"/>
<path d="M1566 2385 c-12 -71 35 -207 107 -315 53 -79 201 -235 287 -303 41
-33 77 -61 78 -62 2 -2 -9 -2 -25 1 -15 2 -49 6 -75 8 -26 2 -53 7 -60 11 -37
19 99 -95 177 -147 228 -154 452 -238 775 -293 326 -56 405 -60 1185 -60 766
0 846 4 1124 51 230 38 481 105 481 126 0 5 -28 6 -62 2 -35 -4 -103 -8 -153
-8 -49 -1 -95 -4 -101 -8 -6 -4 -62 -10 -125 -13 -63 -3 -141 -10 -174 -15
-94 -14 -642 -23 -650 -11 -4 7 5 11 22 12 60 1 100 18 47 20 -43 1 -82 8
-112 21 l-27 12 33 4 c17 2 32 7 32 13 0 5 10 9 23 10 19 0 20 1 4 8 -17 6
-16 8 7 21 14 7 26 19 26 25 0 7 27 20 60 30 33 10 65 24 71 32 6 7 15 11 19
8 4 -3 13 2 20 10 7 8 19 15 27 15 24 0 64 32 59 47 -4 11 -1 11 15 2 18 -9
20 -8 17 8 -2 10 -10 17 -17 15 -7 -1 -10 2 -6 8 3 5 1 10 -6 10 -7 0 -10 3
-6 6 3 3 27 -1 54 -9 26 -9 65 -18 85 -22 21 -3 40 -11 44 -17 14 -22 5 -99
-15 -139 -25 -47 -20 -61 17 -54 67 14 113 15 134 4 19 -9 21 -9 11 2 -7 7
-13 16 -13 20 0 11 59 39 84 40 17 1 18 2 4 6 -21 5 -24 23 -5 23 64 2 218 23
255 36 26 8 68 16 94 15 26 0 50 4 53 10 4 5 21 9 40 9 53 0 87 17 133 67 23
25 41 48 39 50 -4 4 -100 -13 -302 -53 -108 -21 -171 -28 -275 -28 -125 -1
-139 1 -185 24 -60 30 -91 79 -101 160 -5 30 -10 47 -12 38 -2 -10 -11 -18
-20 -18 -15 0 -15 -2 -2 -10 13 -8 12 -10 -3 -10 -10 0 -15 -5 -12 -10 9 -14
-14 -42 -28 -33 -5 3 -7 1 -4 -4 8 -12 -21 -40 -43 -42 -8 0 -32 -4 -52 -7
-34 -6 -37 -4 -34 17 1 13 6 32 10 42 5 9 5 25 1 35 -5 14 -11 9 -28 -23 -26
-49 -28 -61 -16 -92 5 -15 5 -22 0 -18 -5 3 -12 1 -16 -5 -22 -35 -223 -95
-255 -75 -5 3 -31 9 -57 12 -27 3 -54 10 -60 15 -7 6 -13 7 -13 2 0 -5 -5 -2
-10 6 -9 13 -11 13 -20 0 -7 -11 -10 -5 -11 25 -1 38 -2 39 -9 10 l-7 -30 -4
35 c-5 35 -5 35 -16 10 l-12 -25 0 26 c-1 23 -8 28 -73 47 -40 12 -113 42
-162 67 l-88 45 -247 10 c-510 21 -762 49 -1194 135 -380 75 -520 123 -634
214 -66 52 -84 80 -99 150 l-11 56 -7 -40z m749 -660 c33 -13 95 -30 138 -40
42 -9 80 -22 84 -28 3 -6 1 -7 -5 -3 -8 4 -12 0 -12 -11 0 -10 -4 -14 -8 -8
-4 6 -16 10 -27 9 -11 0 -28 3 -37 8 -14 7 -18 4 -19 -9 -1 -17 -2 -17 -6 0
-2 9 -9 15 -14 12 -5 -4 -9 -2 -9 4 0 5 -17 15 -37 22 -21 6 -58 23 -83 36
-50 28 -78 51 -45 38 11 -4 47 -18 80 -30z m1884 -176 c-27 -38 -122 -102
-180 -122 -25 -9 -80 -19 -122 -22 l-77 -6 -2 43 -1 43 -7 -45 c-6 -41 -10
-36 -14 18 -1 13 -16 19 -76 29 -41 6 -93 12 -115 13 -29 0 -36 3 -24 10 8 5
73 10 144 11 173 3 358 24 425 47 30 11 58 17 63 15 4 -2 -2 -18 -14 -34z"/>
<path d="M5000 2294 c0 -8 -4 -12 -10 -9 -5 3 -10 1 -10 -5 0 -6 -4 -8 -10 -5
-6 4 -10 -7 -10 -26 0 -25 3 -29 13 -20 8 6 16 8 20 5 3 -3 3 5 0 18 -3 16 -2
19 5 9 10 -13 14 -10 25 21 3 9 0 19 -9 22 -8 3 -14 -1 -14 -10z"/>
<path d="M5039 2193 c-13 -16 -12 -17 4 -4 9 7 17 15 17 17 0 8 -8 3 -21 -13z"/>
<path d="M4970 2135 c-24 -25 -42 -45 -39 -45 3 0 25 20 49 45 24 25 42 45 39
45 -3 0 -25 -20 -49 -45z"/>
<path d="M5745 2092 c-3 -13 -1 -30 4 -36 6 -7 8 -16 4 -19 -3 -4 0 -7 8 -8
28 -1 65 -10 112 -25 68 -22 145 -21 185 3 39 24 33 28 -64 38 -38 4 -108 22
-156 39 l-87 33 -6 -25z"/>
<path d="M2285 2100 c3 -5 -2 -10 -12 -10 -23 -1 43 -31 77 -36 24 -3 23 -1
-10 26 -34 28 -68 41 -55 20z"/>
<path d="M3614 1979 c-4 -7 -3 -9 4 -5 5 3 13 0 15 -6 4 -9 6 -10 6 -1 1 17
-16 25 -25 12z"/>
<path d="M3820 1854 c0 -12 129 -63 201 -78 61 -14 110 -16 255 -12 124 3 174
2 164 -5 -25 -17 41 0 75 20 16 9 38 31 48 49 l19 32 -381 0 c-210 0 -381 -3
-381 -6z m730 -38 c0 -2 -8 -10 -17 -17 -16 -13 -17 -12 -4 4 13 16 21 21 21
13z"/>
<path d="M6340 1443 c0 -22 -2 -25 -10 -13 -5 8 -10 11 -10 5 0 -5 -5 -3 -10
5 -7 11 -10 11 -10 2 0 -7 -5 -10 -11 -6 -8 5 -8 1 0 -14 9 -17 8 -21 -7 -24
-9 -2 24 -12 73 -22 50 -10 105 -24 123 -31 27 -12 32 -12 32 0 0 7 -13 16
-30 20 -28 6 -30 9 -32 58 l-1 52 -7 -50 c-6 -52 -16 -46 -23 15 l-4 35 -1
-38 c-2 -42 -22 -43 -22 -1 0 13 -5 24 -11 24 -6 0 -9 -6 -6 -12 2 -7 1 -22
-4 -33 -6 -16 -8 -14 -8 12 -1 40 -21 55 -21 16z"/>
<path d="M6472 1405 c0 -16 2 -22 5 -12 2 9 2 23 0 30 -3 6 -5 -1 -5 -18z"/>
<path d="M6495 1290 c10 -11 20 -20 23 -20 3 0 -3 9 -13 20 -10 11 -20 20 -23
20 -3 0 3 -9 13 -20z"/>
<path d="M6566 1241 c5 -33 2 -41 -24 -63 l-30 -25 96 -7 c177 -12 319 -53
396 -115 44 -35 68 -38 206 -21 118 15 208 45 268 90 27 21 58 40 68 43 17 4
17 5 2 6 -10 0 -18 7 -19 14 0 6 -4 2 -9 -10 -18 -45 -179 -112 -272 -113 -38
0 -38 0 -38 40 0 31 -3 38 -15 34 -8 -4 -15 -2 -15 3 0 5 -6 10 -12 10 -173
11 -400 61 -530 117 l-78 34 6 -37z m631 -173 c-3 -7 -5 -2 -5 12 0 14 2 19 5
13 2 -7 2 -19 0 -25z"/>
<path d="M5556 1196 c3 -8 15 -14 25 -13 19 1 19 2 3 14 -23 17 -35 16 -28 -1z"/>
<path d="M5577 1159 c-3 -11 -1 -17 4 -13 5 3 9 2 10 -3 1 -4 3 -24 5 -43 2
-19 4 -41 5 -47 5 -30 210 -82 391 -98 l77 -7 11 -52 c17 -84 95 -142 243
-180 251 -65 641 -19 705 84 l16 25 -30 -26 c-53 -46 -128 -70 -283 -89 -101
-13 -111 -10 -111 38 0 12 -4 22 -9 22 -5 0 -11 8 -13 18 -4 15 -23 20 -114
30 -60 7 -120 15 -134 17 -22 5 -22 4 -5 -4 33 -16 4 -12 -74 9 -187 52 -235
122 -149 217 l20 21 -54 6 c-266 25 -361 42 -443 77 -45 19 -63 18 -68 -2z"/>
<path d="M7605 1173 c-27 -7 -44 -23 -23 -23 31 0 78 13 78 21 0 9 -21 10 -55
2z"/>
<path d="M6408 1123 c6 -2 18 -2 25 0 6 3 1 5 -13 5 -14 0 -19 -2 -12 -5z"/>
<path d="M6768 1103 c7 -3 16 -2 19 1 4 3 -2 6 -13 5 -11 0 -14 -3 -6 -6z"/>
<path d="M5408 1013 c7 -3 16 -2 19 1 4 3 -2 6 -13 5 -11 0 -14 -3 -6 -6z"/>
<path d="M5495 988 c33 -12 62 -25 63 -29 2 -5 11 -9 19 -9 9 0 31 -16 49 -36
19 -19 34 -30 34 -24 0 6 -14 23 -30 37 -17 13 -27 30 -23 35 4 7 1 8 -6 3 -7
-4 -23 -3 -34 3 -45 22 -100 42 -116 41 -9 0 11 -10 44 -21z"/>
<path d="M6197 879 c7 -7 15 -10 18 -7 3 3 -2 9 -12 12 -14 6 -15 5 -6 -5z"/>
<path d="M4681 854 c0 -11 3 -14 6 -6 3 7 2 16 -1 19 -3 4 -6 -2 -5 -13z"/>
<path d="M6240 860 c8 -5 22 -9 30 -9 10 0 8 3 -5 9 -27 12 -43 12 -25 0z"/>
<path d="M5636 831 c-4 -5 -2 -12 3 -15 5 -4 12 -2 15 3 4 5 2 12 -3 15 -5 4
-12 2 -15 -3z"/>
<path d="M4029 753 c-13 -16 -12 -17 4 -4 16 13 21 21 13 21 -2 0 -10 -8 -17
-17z"/>
<path d="M4850 766 c0 -2 7 -7 16 -10 8 -3 12 -2 9 4 -6 10 -25 14 -25 6z"/>
<path d="M4951 727 c10 -18 9 -48 -7 -142 -4 -26 -17 -50 -36 -67 -16 -16 -30
-28 -32 -28 -1 0 -26 -9 -56 -20 -37 -13 -47 -19 -30 -19 60 -1 160 69 160
112 0 13 5 17 16 13 8 -3 79 -8 157 -11 86 -2 130 -1 112 4 -27 8 -24 9 25 11
30 1 80 5 110 10 l55 7 -67 2 c-38 0 -68 5 -68 9 0 5 -10 8 -22 8 -19 -1 -23
4 -21 27 2 24 -2 27 -27 27 -77 0 -266 52 -255 70 2 4 -2 7 -10 7 -11 0 -12
-5 -4 -20z"/>
<path d="M5679 712 c-17 -30 -124 -89 -151 -84 -5 1 -8 -3 -8 -9 0 -25 133 42
164 83 11 15 18 30 15 32 -2 3 -11 -7 -20 -22z"/>
<path d="M3960 661 c0 -106 32 -146 158 -197 127 -51 396 -70 542 -39 l65 14
-70 -5 c-38 -3 -83 -7 -100 -10 l-30 -5 3 50 4 50 -44 5 c-23 3 -91 10 -150
16 -204 20 -318 65 -355 140 l-23 44 0 -63z"/>
<path d="M5495 610 c3 -5 8 -10 11 -10 2 0 4 5 4 10 0 6 -5 10 -11 10 -5 0 -7
-4 -4 -10z"/>
<path d="M4543 475 c0 -27 2 -38 4 -22 2 15 2 37 0 50 -2 12 -4 0 -4 -28z"/>
<path d="M4738 443 c7 -3 16 -2 19 1 4 3 -2 6 -13 5 -11 0 -14 -3 -6 -6z"/>
</g>
</svg>
