<?xml version="1.0" standalone="no"?>
<!DOCTYPE svg PUBLIC "-//W3C//DTD SVG 20010904//EN"
 "http://www.w3.org/TR/2001/REC-SVG-20010904/DTD/svg10.dtd">
<svg version="1.0" xmlns="http://www.w3.org/2000/svg"
 width="512.000000pt" height="512.000000pt" viewBox="0 0 512.000000 512.000000"
 preserveAspectRatio="xMidYMid meet">
<metadata>
Created by potrace 1.14, written by Peter Selinger 2001-2017
</metadata>
<g transform="translate(0.000000,512.000000) scale(0.100000,-0.100000)"
fill="#000000" stroke="none">
<path d="M1151 4890 c-4 -3 -7 -14 -7 -25 -1 -11 -4 -64 -8 -119 -5 -81 -4
-98 7 -93 33 13 39 -8 39 -137 l0 -126 28 0 c45 0 60 -10 60 -40 0 -23 -12
-37 -69 -79 -74 -55 -191 -176 -191 -198 0 -7 -4 -13 -10 -13 -5 0 -27 -37
-49 -82 -39 -79 -62 -150 -78 -241 -8 -51 -10 -2734 -1 -2797 21 -148 84 -297
166 -393 163 -190 361 -286 662 -322 19 -2 46 -7 60 -9 119 -26 1467 -27 1598
-1 11 2 43 6 72 10 29 4 62 9 74 12 12 2 32 6 46 8 14 2 25 4 25 5 0 1 7 3 15
5 62 12 234 78 250 95 3 3 17 11 32 19 15 8 37 22 47 33 11 10 23 18 27 18 12
0 149 147 164 176 8 16 18 31 21 34 10 9 56 104 73 150 28 81 43 164 45 250 4
227 3 2660 -2 2690 -12 73 -54 220 -67 230 -3 3 -14 23 -24 46 -9 22 -28 53
-42 69 -13 15 -24 31 -24 35 0 8 -104 115 -141 145 -13 12 -46 36 -72 53 -50
35 -53 42 -37 72 8 14 19 19 39 16 51 -6 54 2 55 136 1 122 1 123 25 126 l24
4 -6 115 c-3 63 -9 118 -12 122 -8 7 -2803 9 -2814 1z"/>
</g>
</svg>
