<?xml version="1.0" standalone="no"?>
<!DOCTYPE svg PUBLIC "-//W3C//DTD SVG 20010904//EN"
 "http://www.w3.org/TR/2001/REC-SVG-20010904/DTD/svg10.dtd">
<svg version="1.0" xmlns="http://www.w3.org/2000/svg"
 width="512.000000pt" height="512.000000pt" viewBox="0 0 512.000000 512.000000"
 preserveAspectRatio="xMidYMid meet">
<metadata>
Created by potrace 1.14, written by Peter Selinger 2001-2017
</metadata>
<g transform="translate(0.000000,512.000000) scale(0.100000,-0.100000)"
fill="#000000" stroke="none">
<path d="M1350 4503 c0 -27 -3 -72 -6 -100 -6 -49 -5 -53 14 -53 20 0 21 -6
24 -112 l3 -113 1173 -3 1172 -2 0 111 c0 102 2 111 20 116 18 5 20 14 20 88
0 46 -3 90 -6 99 -6 14 -121 16 -1210 16 l-1204 0 0 -47z"/>
<path d="M1945 3185 c-56 -56 -109 -210 -120 -350 -4 -44 -11 -94 -16 -112
-10 -33 -70 -93 -92 -93 -15 0 -67 -163 -67 -210 0 -29 -11 -57 -36 -89 -2 -2
-29 22 -60 54 -39 39 -81 69 -133 94 -71 34 -82 36 -166 35 -49 -1 -103 -6
-118 -12 l-28 -12 4 -672 c3 -749 0 -715 75 -868 56 -115 177 -233 302 -293
52 -26 133 -55 180 -66 184 -43 237 -46 895 -46 701 0 764 4 954 67 232 77
400 252 460 480 18 68 20 121 24 743 l4 670 -79 39 c-107 54 -122 76 -126 188
-2 47 1 107 6 133 9 44 8 49 -22 88 -67 88 -197 158 -290 156 -23 0 -35 -3
-29 -6 7 -2 15 -4 18 -3 3 0 13 -6 21 -15 9 -8 24 -15 35 -15 10 0 18 -3 18
-7 -4 -22 3 -35 26 -45 l25 -11 0 -319 c0 -210 -3 -317 -10 -313 -5 3 -10 -2
-10 -12 0 -16 -10 -18 -109 -18 -60 0 -107 3 -104 8 2 4 16 8 31 8 17 1 21 3
9 6 -9 2 -14 9 -11 14 3 6 -4 13 -15 16 -12 3 -20 8 -18 12 1 3 13 27 25 53
13 26 27 50 32 53 6 3 10 17 10 29 0 13 6 29 14 35 11 9 11 17 3 35 -7 14 -15
22 -18 20 -13 -8 -40 9 -35 22 7 19 -16 24 -36 7 -12 -11 -15 -21 -8 -38 7
-20 5 -24 -16 -29 -13 -4 -24 -11 -24 -17 0 -6 -4 -7 -10 -4 -5 3 -7 0 -4 -9
8 -21 -39 -48 -86 -50 -40 -1 -50 -9 -29 -21 6 -4 8 -13 5 -21 -3 -8 0 -11 10
-7 7 3 14 0 14 -6 0 -19 -5 -26 -15 -22 -5 2 -23 5 -38 7 -40 5 -45 10 -40 41
3 26 3 26 -6 6 -14 -31 -16 -29 -15 17 1 50 6 55 43 42 19 -7 33 -7 36 -1 4 5
1 9 -6 9 -10 0 -10 3 -2 11 7 7 10 24 7 38 -7 35 14 61 56 70 19 4 34 13 33
19 -4 15 32 52 50 52 19 1 47 26 47 43 0 9 7 23 16 32 15 14 15 18 0 41 -9 13
-14 30 -10 37 4 7 -2 4 -13 -5 -11 -10 -27 -18 -37 -18 -9 0 -20 -10 -25 -22
-6 -17 -9 -18 -14 -6 -3 9 3 25 15 38 16 17 19 29 14 63 -4 23 -6 46 -5 51 0
5 -5 12 -11 16 -15 9 8 49 30 51 40 4 58 8 90 23 l35 17 -62 -5 c-34 -2 -83
-12 -107 -21 l-46 -18 24 -27 c49 -59 40 -142 -20 -189 -15 -12 -22 -21 -17
-21 6 0 16 7 23 15 19 23 31 18 26 -12 -2 -16 -5 -35 -5 -44 -1 -17 -33 -59
-45 -59 -4 0 -6 6 -5 13 4 31 -2 39 -25 35 -15 -3 -27 0 -30 8 -3 9 -18 12
-46 9 -30 -3 -40 0 -40 11 0 8 6 14 13 14 12 0 -32 39 -45 40 -15 0 -38 -106
-38 -172 0 -64 -3 -73 -40 -128 l-40 -60 10 -62 c28 -178 -69 -367 -230 -448
-91 -46 -198 -66 -276 -53 -143 25 -277 120 -335 239 -36 73 -49 187 -30 273
25 118 102 229 200 286 52 31 66 61 34 71 -100 31 -152 61 -210 120 -63 63
-63 63 -63 121 -1 63 -28 154 -47 161 -7 2 -24 -8 -38 -23z m1221 -572 c-11
-11 -19 6 -11 24 8 17 8 17 12 0 3 -10 2 -21 -1 -24z m-84 -140 c10 -15 25
-39 35 -53 17 -25 17 -25 -3 -7 -12 9 -33 41 -48 70 -27 51 -17 46 16 -10z
m198 -164 c0 -11 -27 -12 -34 -1 -2 4 4 9 15 9 10 1 19 -2 19 -8z m620 -156
l0 -88 -25 44 c-14 23 -25 47 -25 52 0 9 42 79 48 79 1 0 2 -39 2 -87z m-1967
-84 c74 -25 118 -50 175 -103 46 -42 52 -61 23 -71 -33 -10 -131 -123 -158
-181 -14 -31 -30 -89 -36 -129 -10 -71 -6 -102 29 -222 8 -27 -17 -41 -96 -54
-84 -13 -178 3 -268 47 -60 29 -76 33 -88 23 -18 -15 -15 -20 -85 109 -49 91
-52 95 -112 122 -34 15 -70 30 -79 34 -30 9 -20 26 15 26 48 1 146 24 192 45
92 44 183 171 207 290 7 33 13 62 14 64 7 9 75 19 137 20 44 1 89 -6 130 -20z
m1952 -844 c-44 -220 -195 -407 -390 -480 -83 -32 -95 -32 -95 1 0 14 -5 34
-11 46 -9 16 -7 23 10 35 12 8 40 42 63 76 l42 62 -58 -53 c-32 -29 -75 -61
-95 -71 -223 -114 -492 -29 -594 187 -28 59 -32 77 -31 152 0 75 4 93 32 152
18 37 32 74 32 82 0 19 103 112 151 137 95 48 238 63 326 33 76 -26 146 -78
192 -144 66 -93 83 -143 89 -245 4 -81 2 -98 -21 -155 -15 -35 -25 -66 -23
-68 18 -17 160 68 199 120 51 66 79 144 85 234 l5 84 26 -15 26 -16 -25 23
c-14 13 -36 30 -49 38 -22 15 -22 17 -10 80 10 50 23 77 55 117 23 29 50 70
61 91 l18 39 3 -231 c2 -179 -1 -249 -13 -311z"/>
<path d="M3185 2819 c-11 -16 -1 -19 13 -3 7 8 8 14 3 14 -5 0 -13 -5 -16 -11z"/>
<path d="M3586 2784 c-8 -65 -6 -195 4 -219 5 -12 9 34 9 123 1 78 -1 142 -3
142 -2 0 -6 -21 -10 -46z"/>
<path d="M3440 2700 c0 -23 5 -30 19 -30 10 0 21 9 24 20 3 11 1 18 -4 14 -5
-3 -9 -1 -9 4 0 6 -7 12 -15 16 -11 4 -15 -2 -15 -24z"/>
<path d="M3298 2618 c-2 -12 -18 -33 -37 -45 -19 -13 -30 -23 -26 -23 18 0 74
46 79 65 5 17 8 18 16 5 8 -13 10 -12 10 3 0 26 -38 22 -42 -5z"/>
<path d="M3205 2560 c3 -5 8 -10 11 -10 2 0 4 5 4 10 0 6 -5 10 -11 10 -5 0
-7 -4 -4 -10z"/>
<path d="M3592 2480 c0 -14 2 -19 5 -12 2 6 2 18 0 25 -3 6 -5 1 -5 -13z"/>
</g>
</svg>
