<?xml version="1.0" standalone="no"?>
<!DOCTYPE svg PUBLIC "-//W3C//DTD SVG 20010904//EN"
 "http://www.w3.org/TR/2001/REC-SVG-20010904/DTD/svg10.dtd">
<svg version="1.0" xmlns="http://www.w3.org/2000/svg"
 width="1024.000000pt" height="1024.000000pt" viewBox="0 0 1024.000000 1024.000000"
 preserveAspectRatio="xMidYMid meet">
<metadata>
Created by potrace 1.14, written by Peter Selinger 2001-2017
</metadata>
<g transform="translate(0.000000,1024.000000) scale(0.100000,-0.100000)"
fill="#000000" stroke="none">
<path d="M2696 9017 c-3 -50 -7 -144 -9 -207 l-2 -115 30 -3 c17 -2 34 -8 40
-13 6 -6 10 -95 10 -219 0 -114 3 -211 6 -214 3 -3 31 -7 62 -7 41 -1 61 -7
73 -20 9 -11 14 -19 9 -19 -4 0 -2 -6 4 -14 8 -9 8 -16 2 -20 -6 -4 -8 -13 -4
-21 3 -8 0 -15 -6 -15 -6 0 -11 -7 -11 -16 0 -8 -4 -12 -10 -9 -5 3 -10 1 -10
-4 0 -6 -7 -11 -15 -11 -8 0 -15 -4 -15 -10 0 -5 -6 -10 -13 -10 -7 0 -20 -9
-30 -20 -9 -11 -23 -20 -29 -20 -7 0 -19 -9 -26 -20 -7 -12 -17 -18 -22 -15
-6 3 -10 -1 -10 -9 0 -9 -5 -16 -11 -16 -11 0 -200 -192 -195 -198 2 -2 -11
-20 -29 -40 -19 -20 -32 -40 -29 -44 3 -4 0 -8 -5 -8 -6 0 -11 -7 -11 -16 0
-8 -3 -13 -8 -10 -4 2 -16 -16 -26 -40 -10 -24 -22 -44 -27 -44 -5 0 -9 -6 -9
-12 0 -7 -14 -40 -30 -73 -16 -33 -30 -68 -30 -77 0 -9 -4 -19 -9 -22 -5 -3
-12 -23 -16 -43 -4 -21 -10 -42 -13 -48 -4 -5 -7 -16 -9 -24 -1 -7 -6 -34 -12
-60 -6 -25 -15 -80 -20 -121 -11 -84 -9 -4706 1 -4755 43 -202 42 -197 67
-268 27 -78 74 -181 83 -185 4 -2 8 -10 8 -18 0 -8 4 -14 9 -14 8 0 19 -27 17
-40 -1 -3 5 -12 12 -20 23 -28 47 -58 62 -80 62 -91 284 -300 319 -300 6 0 11
-4 11 -8 0 -5 19 -19 43 -32 23 -13 45 -28 48 -33 3 -5 10 -9 15 -9 5 -1 45
-18 89 -39 148 -68 362 -130 540 -154 22 -3 56 -8 75 -10 83 -12 110 -15 201
-25 189 -20 467 -25 1294 -25 743 1 1158 7 1220 20 11 2 58 7 105 10 46 4 87
8 90 10 3 1 32 6 65 9 33 3 71 8 85 11 14 3 43 8 65 11 57 8 187 41 280 72 44
14 83 25 88 24 4 -1 7 2 7 8 0 5 6 10 13 10 6 0 46 17 87 37 41 20 79 36 83
35 4 -1 10 5 13 13 4 8 12 15 20 15 8 0 14 5 14 12 0 6 3 9 6 5 6 -5 25 7 129
86 16 12 53 45 82 73 29 27 53 48 53 45 0 -3 12 11 27 32 14 20 30 37 35 37 5
0 6 5 3 10 -3 6 -2 10 4 10 15 0 141 187 157 233 4 9 9 17 13 17 4 0 7 10 8
22 1 11 7 24 13 28 7 4 11 10 11 14 -1 3 6 23 14 43 9 20 18 48 22 62 3 14 8
31 12 36 3 6 6 15 7 20 1 6 9 37 17 70 15 58 19 82 31 175 9 69 12 4628 3
4685 -22 142 -21 135 -36 195 -12 44 -19 66 -42 125 -7 17 -13 35 -14 40 -6
26 -89 185 -97 185 -5 0 -7 4 -4 9 3 4 -3 19 -14 31 -11 13 -20 29 -20 37 0 7
-7 13 -15 13 -8 0 -15 6 -15 13 0 13 -35 59 -95 124 -22 24 -45 49 -51 56 -40
44 -196 167 -214 167 -5 0 -10 4 -10 8 0 5 -16 17 -35 28 -19 10 -35 22 -35
27 0 4 -4 6 -8 3 -5 -3 -9 1 -9 9 0 8 4 12 8 10 9 -6 6 16 -5 33 -17 28 20 48
91 50 36 1 70 6 73 12 4 7 7 69 8 138 0 70 1 166 1 214 l1 87 38 3 37 3 0 110
c-1 159 -12 287 -27 296 -7 4 -1093 8 -2414 8 l-2402 0 -6 -92z"/>
</g>
</svg>
